<svg xmlns="http://www.w3.org/2000/svg" version="1.1" xmlns:xlink="http://www.w3.org/1999/xlink" xmlns:svgjs="http://svgjs.dev/svgjs" width="1500" height="378" viewBox="0 0 1500 378"><g transform="matrix(1,0,0,1,-0.9090909090908781,-1.1289715633873811)"><svg viewBox="0 0 396 100" data-background-color="#ffffff" preserveAspectRatio="xMidYMid meet" height="378" width="1500" xmlns="http://www.w3.org/2000/svg" xmlns:xlink="http://www.w3.org/1999/xlink"><g id="tight-bounds" transform="matrix(1,0,0,1,0.2400000000000091,0.2986697257638582)"><svg viewBox="0 0 395.52 99.40236641529046" height="99.40236641529046" width="395.52"><g><svg viewBox="0 0 395.52 99.40236641529046" height="99.40236641529046" width="395.52"><g><svg viewBox="0 0 578.4345071122312 145.37256984025572" height="99.40236641529046" width="395.52"><g transform="matrix(1,0,0,1,182.91450711223126,19.005471308517855)"><svg viewBox="0 0 395.52 107.36162722322001" height="107.36162722322001" width="395.52"><g id="textblocktransform"><svg viewBox="0 0 395.52 107.36162722322001" height="107.36162722322001" width="395.52" id="textblock"><g><rect width="106.79039999999999" height="7.170510018947331" y="99.23724142397597" fill="#261f20" data-fill-palette-color="tertiary"></rect><rect width="106.79039999999999" height="7.170510018947331" y="99.23724142397597" x="288.7296" fill="#261f20" data-fill-palette-color="tertiary"></rect></g><g><svg viewBox="0 0 395.52 79.51239700769149" height="79.51239700769149" width="395.52"><g transform="matrix(1,0,0,1,0,0)"><svg width="395.52" viewBox="3.15 -36.23 231.7 46.58" height="79.51239700769149" data-palette-color="#000000"><path d="M26.83 0L22.88 0 22.88-21.19Q22.88-24.49 22.95-26.1L22.95-26.1 23.02-28.54Q21.46-23.51 20.7-21.44L20.7-21.44 16.7-10.74 13.35-10.74 9.3-21.44Q8.86-22.56 6.96-28.54L6.96-28.54 7.06-21.19 7.06 0 3.15 0 3.15-32.93 8.94-32.93 13.45-21Q13.96-19.7 15.11-15.36L15.11-15.36 15.75-17.55 16.82-20.97 21.34-32.93 26.83-32.93 26.83 0ZM56.88-2.71L56.88-2.71Q57.52-2.71 58.32-2.88L58.32-2.88 58.32-0.15Q56.66 0.24 54.93 0.24L54.93 0.24Q52.49 0.24 51.38-1.04 50.27-2.32 50.12-5.05L50.12-5.05 49.97-5.05Q48.39-2.1 46.23-0.81 44.06 0.49 40.89 0.49L40.89 0.49Q37.03 0.49 35.08-1.61 33.13-3.71 33.13-7.37L33.13-7.37Q33.13-15.89 44.21-16.02L44.21-16.02 49.97-16.11 49.97-17.55Q49.97-20.75 48.68-22.16 47.39-23.56 44.55-23.56L44.55-23.56Q41.67-23.56 40.4-22.53 39.13-21.51 38.89-19.36L38.89-19.36 34.3-19.78Q35.42-26.9 44.63-26.9L44.63-26.9Q49.51-26.9 51.96-24.62 54.42-22.34 54.42-18.02L54.42-18.02 54.42-6.64Q54.42-4.69 54.93-3.7 55.44-2.71 56.88-2.71ZM42.01-2.86L42.01-2.86Q44.36-2.86 46.16-3.98 47.97-5.1 48.97-6.98 49.97-8.86 49.97-10.86L49.97-10.86 49.97-13.04 45.33-12.94Q42.45-12.89 40.94-12.3 39.43-11.72 38.58-10.51 37.74-9.3 37.74-7.3L37.74-7.3Q37.74-5.3 38.83-4.08 39.91-2.86 42.01-2.86ZM75.02 10.35L75.02 10.35Q70.92 10.35 68.43 8.67 65.94 6.98 65.25 3.83L65.25 3.83 69.75 3.22Q70.16 5.05 71.54 6.04 72.92 7.03 75.17 7.03L75.17 7.03Q81.22 7.03 81.22-0.66L81.22-0.66 81.22-5.4 81.17-5.4Q79.98-2.88 77.85-1.59 75.73-0.29 72.8-0.29L72.8-0.29Q67.96-0.29 65.73-3.45 63.5-6.62 63.5-13.4L63.5-13.4Q63.5-20.31 65.89-23.57 68.28-26.83 73.26-26.83L73.26-26.83Q76.02-26.83 78.06-25.55 80.1-24.27 81.2-21.9L81.2-21.9 81.27-21.9Q81.27-22.63 81.37-24.38 81.46-26.12 81.56-26.42L81.56-26.42 85.74-26.42Q85.59-25.1 85.59-20.95L85.59-20.95 85.59-0.78Q85.59 4.76 83 7.56 80.41 10.35 75.02 10.35ZM81.22-13.45L81.22-13.45Q81.22-18.16 79.39-20.86 77.56-23.56 74.36-23.56L74.36-23.56Q71.02-23.56 69.53-21.23 68.04-18.9 68.04-13.45L68.04-13.45Q68.04-9.77 68.66-7.63 69.28-5.49 70.6-4.52 71.92-3.54 74.29-3.54L74.29-3.54Q76.36-3.54 77.94-4.7 79.51-5.86 80.37-8.09 81.22-10.33 81.22-13.45ZM108.2-26.42L108.2-3.47 117.47-3.47 117.47 0 93.5 0 93.5-3.47 103.8-3.47 103.8-22.95 96.01-22.95 96.01-26.42 108.2-26.42ZM108.2-31.54L103.31-31.54 103.31-36.23 108.2-36.23 108.2-31.54ZM123.18-13.23L123.18-13.23Q123.18-19.82 126.33-23.36 129.48-26.9 135.44-26.9L135.44-26.9Q139.88-26.9 142.76-24.77 145.64-22.63 146.33-19.02L146.33-19.02 141.64-18.68Q141.25-20.9 139.69-22.18 138.12-23.46 135.24-23.46L135.24-23.46Q131.39-23.46 129.59-21.07 127.8-18.68 127.8-13.33L127.8-13.33Q127.8-7.91 129.59-5.41 131.39-2.91 135.22-2.91L135.22-2.91Q137.86-2.91 139.59-4.2 141.32-5.49 141.74-8.15L141.74-8.15 146.38-7.86Q146.06-5.52 144.61-3.6 143.15-1.68 140.76-0.6 138.37 0.49 135.41 0.49L135.41 0.49Q129.43 0.49 126.31-3.03 123.18-6.54 123.18-13.23ZM178.14-9.28L178.14-9.28Q178.14-4.88 174.79-2.44 171.45 0 165.49 0L165.49 0 153.97 0 153.97-32.93 164.03-32.93Q176.13-32.93 176.13-24.95L176.13-24.95Q176.13-21.97 174.38-19.97 172.62-17.97 169.59-17.36L169.59-17.36Q173.67-16.92 175.9-14.75 178.14-12.57 178.14-9.28ZM171.45-24.37L171.45-24.37Q171.45-26.98 169.6-28.09 167.76-29.2 164.07-29.2L164.07-29.2 158.63-29.2 158.63-19.04 164.12-19.04Q171.45-19.04 171.45-24.37ZM173.43-9.69L173.43-9.69Q173.43-12.48 171.25-13.94 169.08-15.41 164.78-15.41L164.78-15.41 158.63-15.41 158.63-3.74 165.12-3.74Q169.4-3.74 171.41-5.21 173.43-6.69 173.43-9.69ZM206.8-13.23L206.8-13.23Q206.8-6.57 203.73-3.04 200.67 0.49 194.88 0.49L194.88 0.49Q189.22 0.49 186.2-3.08 183.19-6.64 183.19-13.23L183.19-13.23Q183.19-20.04 186.28-23.47 189.36-26.9 195.03-26.9L195.03-26.9Q200.99-26.9 203.89-23.51 206.8-20.12 206.8-13.23ZM202.18-13.23L202.18-13.23Q202.18-18.48 200.51-21.07 198.84-23.66 195.1-23.66L195.1-23.66Q191.32-23.66 189.56-21.02 187.8-18.38 187.8-13.23L187.8-13.23Q187.8-8.11 189.56-5.43 191.32-2.76 194.83-2.76L194.83-2.76Q198.72-2.76 200.45-5.37 202.18-7.98 202.18-13.23ZM218.76-22.95L214.66-22.95 214.66-26.42 218.81-26.42 220.22-33.3 223.15-33.3 223.15-26.42 233.7-26.42 233.7-22.95 223.15-22.95 223.15-7.03Q223.15-5.1 224.19-4.17 225.23-3.25 227.59-3.25L227.59-3.25Q230.87-3.25 234.85-4.08L234.85-4.08 234.85-0.73Q230.72 0.39 226.67 0.39L226.67 0.39Q222.71 0.39 220.73-1.28 218.76-2.95 218.76-6.57L218.76-6.57 218.76-22.95Z" opacity="1" transform="matrix(1,0,0,1,0,0)" fill="#000000" class="wordmark-text-0" data-fill-palette-color="primary" id="text-0"></path></svg></g></svg></g><g transform="matrix(1,0,0,1,106.79039999999999,98.28336564367928)"><svg viewBox="0 0 181.9392 9.078261579540735" height="9.078261579540735" width="181.9392"><g transform="matrix(1,0,0,1,8,0)"><svg width="165.9392" viewBox="0.49 -35.01 822.8 45.019999999999996" height="9.078261579540735" data-palette-color="#000000"><path d="M19.46 0L17.14-8.15 6.05-8.15 3.76 0 0.49 0 10.74-35.01 12.4-35.01 22.71 0 19.46 0ZM11.5-27.29L6.91-11.16 16.31-11.16 11.69-27.29 11.6-28.59 11.5-27.29ZM42.89 0L41.89 0 40.23-2.54Q39.21-1.15 37.67-0.33 36.13 0.49 34.3 0.49L34.3 0.49 33.54 0.49Q32.03 0.49 30.69-0.09 29.34-0.66 28.34-1.66 27.34-2.66 26.77-4 26.19-5.35 26.19-6.86L26.19-6.86 26.19-25 29.2-25 29.2-6.69Q29.2-5.79 29.54-4.99 29.88-4.2 30.47-3.61 31.05-3.03 31.85-2.69 32.64-2.34 33.54-2.34L33.54-2.34 35.54-2.34Q36.45-2.34 37.24-2.69 38.03-3.03 38.62-3.61 39.21-4.2 39.55-4.99 39.89-5.79 39.89-6.69L39.89-6.69 39.89-25 42.89-25 42.89 0ZM60.74 0L58 0Q56.64 0 55.43-0.51 54.22-1.03 53.33-1.93 52.44-2.83 51.91-4.03 51.39-5.22 51.39-6.59L51.39-6.59 51.39-22.14 46.89-22.14 46.89-25 51.39-25 51.39-31.01 54.39-31.49 54.39-25 60.74-25 60.74-22.14 54.39-22.14 54.39-6.45Q54.39-5.69 54.67-5.04 54.95-4.39 55.44-3.91 55.93-3.42 56.59-3.14 57.25-2.86 58-2.86L58-2.86 60.74-2.86 60.74 0ZM82.95-6.86L82.95-6.86Q82.95-5.35 82.38-4 81.8-2.66 80.8-1.66 79.8-0.66 78.46-0.09 77.12 0.49 75.6 0.49L75.6 0.49 73.6 0.49Q72.09 0.49 70.74-0.09 69.4-0.66 68.4-1.66 67.4-2.66 66.83-4 66.25-5.35 66.25-6.86L66.25-6.86 66.25-18.14Q66.25-19.65 66.83-21 67.4-22.34 68.4-23.34 69.4-24.34 70.74-24.91 72.09-25.49 73.6-25.49L73.6-25.49 75.6-25.49Q77.12-25.49 78.46-24.91 79.8-24.34 80.8-23.34 81.8-22.34 82.38-21 82.95-19.65 82.95-18.14L82.95-18.14 82.95-6.86ZM79.95-6.69L79.95-18.31Q79.95-19.21 79.61-20.01 79.26-20.8 78.68-21.39 78.09-21.97 77.3-22.31 76.51-22.66 75.6-22.66L75.6-22.66 73.6-22.66Q72.7-22.66 71.9-22.31 71.11-21.97 70.52-21.39 69.94-20.8 69.6-20.01 69.26-19.21 69.26-18.31L69.26-18.31 69.26-6.69Q69.26-5.79 69.6-4.99 69.94-4.2 70.52-3.61 71.11-3.03 71.9-2.69 72.7-2.34 73.6-2.34L73.6-2.34 75.6-2.34Q76.51-2.34 77.3-2.69 78.09-3.03 78.68-3.61 79.26-4.2 79.61-4.99 79.95-5.79 79.95-6.69L79.95-6.69ZM118.35 0L115.35 0 115.35-18.31Q115.35-19.21 115-20.01 114.66-20.8 114.08-21.39 113.49-21.97 112.7-22.31 111.9-22.66 111-22.66L111-22.66 109.51-22.66Q108.61-22.66 107.81-22.31 107.02-21.97 106.42-21.39 105.82-20.8 105.48-20.01 105.14-19.21 105.14-18.31L105.14-18.31 105.14 0 102.16 0 102.16-18.31Q102.16-19.21 101.82-20.01 101.48-20.8 100.88-21.39 100.28-21.97 99.49-22.31 98.7-22.66 97.79-22.66L97.79-22.66 96.3-22.66Q95.4-22.66 94.61-22.31 93.81-21.97 93.23-21.39 92.64-20.8 92.3-20.01 91.96-19.21 91.96-18.31L91.96-18.31 91.96 0 88.95 0 88.95-25 89.96-25 91.59-22.46Q92.62-23.85 94.17-24.67 95.72-25.49 97.55-25.49L97.55-25.49 97.79-25.49Q99.92-25.49 101.63-24.44 103.33-23.39 104.26-21.66L104.26-21.66Q104.73-22.51 105.41-23.22 106.09-23.93 106.92-24.43 107.75-24.93 108.73-25.21 109.71-25.49 110.76-25.49L110.76-25.49 111-25.49Q112.51-25.49 113.86-24.91 115.2-24.34 116.2-23.34 117.2-22.34 117.78-21 118.35-19.65 118.35-18.14L118.35-18.14 118.35 0ZM141.05 0L140.05 0 138.39-2.49Q137.37-1.15 135.83-0.33 134.29 0.49 132.46 0.49L132.46 0.49 131.7 0.49Q130.19 0.49 128.84-0.09 127.5-0.66 126.5-1.66 125.5-2.66 124.93-4 124.35-5.35 124.35-6.86L124.35-6.86 124.35-7.1Q124.35-8.62 124.93-9.96 125.5-11.3 126.5-12.3 127.5-13.31 128.84-13.88 130.19-14.45 131.7-14.45L131.7-14.45 138.05-14.45 138.05-18.31Q138.05-19.21 137.71-20.01 137.37-20.8 136.78-21.39 136.19-21.97 135.4-22.31 134.61-22.66 133.7-22.66L133.7-22.66 131.95-22.66Q131.04-22.66 130.25-22.31 129.46-21.97 128.87-21.39 128.28-20.8 127.94-20.01 127.6-19.21 127.6-18.31L127.6-18.31 127.6-17.41 124.6-17.9 124.6-18.14Q124.6-19.65 125.17-21 125.74-22.34 126.75-23.34 127.75-24.34 129.09-24.91 130.43-25.49 131.95-25.49L131.95-25.49 133.7-25.49Q135.22-25.49 136.56-24.91 137.9-24.34 138.9-23.34 139.9-22.34 140.48-21 141.05-19.65 141.05-18.14L141.05-18.14 141.05 0ZM138.05-6.69L138.05-12.11 131.7-12.11Q130.8-12.11 130-11.77 129.21-11.43 128.63-10.83 128.04-10.23 127.7-9.44 127.36-8.64 127.36-7.74L127.36-7.74 127.36-6.69Q127.36-5.79 127.7-4.99 128.04-4.2 128.63-3.61 129.21-3.03 130-2.69 130.8-2.34 131.7-2.34L131.7-2.34 133.7-2.34Q134.61-2.34 135.4-2.69 136.19-3.03 136.78-3.61 137.37-4.2 137.71-4.99 138.05-5.79 138.05-6.69L138.05-6.69ZM158.9 0L156.16 0Q154.79 0 153.59-0.51 152.38-1.03 151.49-1.93 150.6-2.83 150.07-4.03 149.55-5.22 149.55-6.59L149.55-6.59 149.55-22.14 145.05-22.14 145.05-25 149.55-25 149.55-31.01 152.55-31.49 152.55-25 158.9-25 158.9-22.14 152.55-22.14 152.55-6.45Q152.55-5.69 152.83-5.04 153.11-4.39 153.6-3.91 154.09-3.42 154.75-3.14 155.4-2.86 156.16-2.86L156.16-2.86 158.9-2.86 158.9 0ZM168.66-31.01L165.17-31.01 165.17-35.01 168.66-35.01 168.66-31.01ZM168.42 0L165.41 0 165.41-25 168.42-25 168.42 0ZM191.12 0L174.42 0 174.42-1.34 187.02-22.14 174.91-22.14 174.91-25 191.12-25 191.12-23.66 178.52-2.86 191.12-2.86 191.12 0ZM212.82-6.86L212.82-6.86Q212.82-5.35 212.25-4 211.67-2.66 210.67-1.66 209.67-0.66 208.33-0.09 206.98 0.49 205.47 0.49L205.47 0.49 203.47 0.49Q201.96 0.49 200.61-0.09 199.27-0.66 198.27-1.66 197.27-2.66 196.69-4 196.12-5.35 196.12-6.86L196.12-6.86 196.12-18.14Q196.12-19.65 196.69-21 197.27-22.34 198.27-23.34 199.27-24.34 200.61-24.91 201.96-25.49 203.47-25.49L203.47-25.49 205.47-25.49Q206.98-25.49 208.33-24.91 209.67-24.34 210.67-23.34 211.67-22.34 212.25-21 212.82-19.65 212.82-18.14L212.82-18.14 212.82-12.26 199.12-12.26 199.12-6.69Q199.12-5.79 199.46-4.99 199.81-4.2 200.39-3.61 200.98-3.03 201.77-2.69 202.57-2.34 203.47-2.34L203.47-2.34 205.47-2.34Q206.37-2.34 207.17-2.69 207.96-3.03 208.55-3.61 209.13-4.2 209.47-4.99 209.82-5.79 209.82-6.69L209.82-6.69 209.82-8.35 212.82-7.86 212.82-6.86ZM209.82-14.6L209.82-18.31Q209.82-19.21 209.47-20.01 209.13-20.8 208.55-21.39 207.96-21.97 207.17-22.31 206.37-22.66 205.47-22.66L205.47-22.66 203.47-22.66Q202.57-22.66 201.77-22.31 200.98-21.97 200.39-21.39 199.81-20.8 199.46-20.01 199.12-19.21 199.12-18.31L199.12-18.31 199.12-14.6 209.82-14.6ZM247.02 0L246.02 0 244.36-2.54Q243.33-1.15 241.79-0.33 240.26 0.49 238.42 0.49L238.42 0.49 237.67 0.49Q236.15 0.49 234.81-0.09 233.47-0.66 232.47-1.66 231.47-2.66 230.89-4 230.32-5.35 230.32-6.86L230.32-6.86 230.32-18.14Q230.32-19.65 230.89-21 231.47-22.34 232.47-23.34 233.47-24.34 234.81-24.91 236.15-25.49 237.67-25.49L237.67-25.49 238.42-25.49Q240.11-25.49 241.55-24.8 242.99-24.12 244.02-22.9L244.02-22.9 244.02-35.01 247.02-35.01 247.02 0ZM244.02-6.69L244.02-18.31Q244.02-19.21 243.67-20.01 243.33-20.8 242.75-21.39 242.16-21.97 241.37-22.31 240.57-22.66 239.67-22.66L239.67-22.66 237.67-22.66Q236.76-22.66 235.97-22.31 235.18-21.97 234.59-21.39 234.01-20.8 233.66-20.01 233.32-19.21 233.32-18.31L233.32-18.31 233.32-6.69Q233.32-5.79 233.66-4.99 234.01-4.2 234.59-3.61 235.18-3.03 235.97-2.69 236.76-2.34 237.67-2.34L237.67-2.34 239.67-2.34Q240.57-2.34 241.37-2.69 242.16-3.03 242.75-3.61 243.33-4.2 243.67-4.99 244.02-5.79 244.02-6.69L244.02-6.69ZM257.27-31.01L253.78-31.01 253.78-35.01 257.27-35.01 257.27-31.01ZM257.03 0L254.02 0 254.02-25 257.03-25 257.03 0ZM280.73 0L279.73 0 278.07-2.49Q277.04-1.15 275.5-0.33 273.97 0.49 272.14 0.49L272.14 0.49 271.38 0.49Q269.86 0.49 268.52-0.09 267.18-0.66 266.18-1.66 265.18-2.66 264.6-4 264.03-5.35 264.03-6.86L264.03-6.86 264.03-7.1Q264.03-8.62 264.6-9.96 265.18-11.3 266.18-12.3 267.18-13.31 268.52-13.88 269.86-14.45 271.38-14.45L271.38-14.45 277.73-14.45 277.73-18.31Q277.73-19.21 277.38-20.01 277.04-20.8 276.46-21.39 275.87-21.97 275.08-22.31 274.28-22.66 273.38-22.66L273.38-22.66 271.62-22.66Q270.72-22.66 269.93-22.31 269.13-21.97 268.55-21.39 267.96-20.8 267.62-20.01 267.28-19.21 267.28-18.31L267.28-18.31 267.28-17.41 264.27-17.9 264.27-18.14Q264.27-19.65 264.85-21 265.42-22.34 266.42-23.34 267.42-24.34 268.77-24.91 270.11-25.49 271.62-25.49L271.62-25.49 273.38-25.49Q274.89-25.49 276.24-24.91 277.58-24.34 278.58-23.34 279.58-22.34 280.16-21 280.73-19.65 280.73-18.14L280.73-18.14 280.73 0ZM277.73-6.69L277.73-12.11 271.38-12.11Q270.48-12.11 269.68-11.77 268.89-11.43 268.3-10.83 267.72-10.23 267.37-9.44 267.03-8.64 267.03-7.74L267.03-7.74 267.03-6.69Q267.03-5.79 267.37-4.99 267.72-4.2 268.3-3.61 268.89-3.03 269.68-2.69 270.48-2.34 271.38-2.34L271.38-2.34 273.38-2.34Q274.28-2.34 275.08-2.69 275.87-3.03 276.46-3.61 277.04-4.2 277.38-4.99 277.73-5.79 277.73-6.69L277.73-6.69ZM277.87-35.01L271.13-29 268.89-29 272.87-35.01 277.87-35.01ZM290.74 0L287.73 0 287.73-35.01 290.74-35.01 290.74 0ZM313.95-6.86L313.95-6.86Q313.95-5.35 313.38-4 312.8-2.66 311.8-1.66 310.8-0.66 309.46-0.09 308.12 0.49 306.6 0.49L306.6 0.49 304.6 0.49Q303.09 0.49 301.74-0.09 300.4-0.66 299.4-1.66 298.4-2.66 297.83-4 297.25-5.35 297.25-6.86L297.25-6.86 297.25-18.14Q297.25-19.65 297.83-21 298.4-22.34 299.4-23.34 300.4-24.34 301.74-24.91 303.09-25.49 304.6-25.49L304.6-25.49 306.6-25.49Q308.12-25.49 309.46-24.91 310.8-24.34 311.8-23.34 312.8-22.34 313.38-21 313.95-19.65 313.95-18.14L313.95-18.14 313.95-6.86ZM310.95-6.69L310.95-18.31Q310.95-19.21 310.61-20.01 310.27-20.8 309.68-21.39 309.09-21.97 308.3-22.31 307.51-22.66 306.6-22.66L306.6-22.66 304.6-22.66Q303.7-22.66 302.9-22.31 302.11-21.97 301.53-21.39 300.94-20.8 300.6-20.01 300.26-19.21 300.26-18.31L300.26-18.31 300.26-6.69Q300.26-5.79 300.6-4.99 300.94-4.2 301.53-3.61 302.11-3.03 302.9-2.69 303.7-2.34 304.6-2.34L304.6-2.34 306.6-2.34Q307.51-2.34 308.3-2.69 309.09-3.03 309.68-3.61 310.27-4.2 310.61-4.99 310.95-5.79 310.95-6.69L310.95-6.69ZM336.9 3.15L336.9 3.15Q336.9 4.66 336.32 5.93 335.75 7.2 334.75 8.11 333.75 9.01 332.41 9.51 331.06 10.01 329.55 10.01L329.55 10.01 328.3 10.01Q326.79 10.01 325.45 9.51 324.11 9.01 323.1 8.11 322.1 7.2 321.53 5.93 320.96 4.66 320.96 3.15L320.96 3.15 320.96 3.05Q320.96 1.59 321.49 0.37 322.03-0.85 322.96-1.76L322.96-1.76Q321.79-2.47 321.09-3.67 320.39-4.88 320.39-6.35L320.39-6.35Q320.39-7.67 320.96-8.8 321.52-9.94 322.49-10.64L322.49-10.64Q321.32-11.67 320.64-13.11 319.96-14.55 319.96-16.26L319.96-16.26 319.96-18.14Q319.96-19.65 320.53-21 321.1-22.34 322.1-23.34 323.1-24.34 324.45-24.91 325.79-25.49 327.3-25.49L327.3-25.49 328.55-25.49Q330.38-25.49 331.93-24.67 333.48-23.85 334.51-22.46L334.51-22.46 336.14-25 337.14-25 337.14-16.26Q337.14-14.75 336.57-13.4 336-12.06 334.99-11.06 333.99-10.06 332.65-9.48 331.31-8.91 329.79-8.91L329.79-8.91 325.45-8.91Q324.94-8.91 324.47-8.7 324.01-8.5 323.65-8.15 323.3-7.81 323.1-7.34 322.91-6.86 322.91-6.35L322.91-6.35Q322.91-5.83 323.1-5.37 323.3-4.91 323.65-4.55 324.01-4.2 324.47-4 324.94-3.81 325.45-3.81L325.45-3.81 329.55-3.81Q331.06-3.81 332.41-3.31 333.75-2.81 334.75-1.9 335.75-1 336.32 0.27 336.9 1.54 336.9 3.05L336.9 3.05 336.9 3.15ZM334.16-16.09L334.16-18.31Q334.16-19.21 333.82-20.01 333.48-20.8 332.88-21.39 332.28-21.97 331.49-22.31 330.7-22.66 329.79-22.66L329.79-22.66 327.3-22.66Q326.4-22.66 325.61-22.31 324.81-21.97 324.23-21.39 323.64-20.8 323.3-20.01 322.96-19.21 322.96-18.31L322.96-18.31 322.96-16.09Q322.96-15.19 323.3-14.39 323.64-13.6 324.23-13.01 324.81-12.43 325.61-12.08 326.4-11.74 327.3-11.74L327.3-11.74 329.79-11.74Q330.7-11.74 331.49-12.08 332.28-12.43 332.88-13.01 333.48-13.6 333.82-14.39 334.16-15.19 334.16-16.09L334.16-16.09ZM334.04 3.3L334.04 2.91Q334.04 2 333.7 1.28 333.36 0.56 332.77 0.07 332.19-0.42 331.39-0.68 330.6-0.95 329.7-0.95L329.7-0.95 328.16-0.95Q327.25-0.95 326.46-0.68 325.67-0.42 325.08 0.07 324.5 0.56 324.15 1.28 323.81 2 323.81 2.91L323.81 2.91 323.81 3.3Q323.81 4.2 324.15 4.91 324.5 5.62 325.08 6.12 325.67 6.62 326.46 6.88 327.25 7.15 328.16 7.15L328.16 7.15 329.7 7.15Q330.6 7.15 331.39 6.88 332.19 6.62 332.77 6.12 333.36 5.62 333.7 4.91 334.04 4.2 334.04 3.3L334.04 3.3ZM359.36-6.86L359.36-6.86Q359.36-5.35 358.78-4 358.21-2.66 357.21-1.66 356.21-0.66 354.86-0.09 353.52 0.49 352.01 0.49L352.01 0.49 350.01 0.49Q348.49 0.49 347.15-0.09 345.81-0.66 344.81-1.66 343.81-2.66 343.23-4 342.66-5.35 342.66-6.86L342.66-6.86 342.66-18.14Q342.66-19.65 343.23-21 343.81-22.34 344.81-23.34 345.81-24.34 347.15-24.91 348.49-25.49 350.01-25.49L350.01-25.49 352.01-25.49Q353.52-25.49 354.86-24.91 356.21-24.34 357.21-23.34 358.21-22.34 358.78-21 359.36-19.65 359.36-18.14L359.36-18.14 359.36-6.86ZM356.35-6.69L356.35-18.31Q356.35-19.21 356.01-20.01 355.67-20.8 355.08-21.39 354.5-21.97 353.71-22.31 352.91-22.66 352.01-22.66L352.01-22.66 350.01-22.66Q349.1-22.66 348.31-22.31 347.52-21.97 346.93-21.39 346.34-20.8 346-20.01 345.66-19.21 345.66-18.31L345.66-18.31 345.66-6.69Q345.66-5.79 346-4.99 346.34-4.2 346.93-3.61 347.52-3.03 348.31-2.69 349.1-2.34 350.01-2.34L350.01-2.34 352.01-2.34Q352.91-2.34 353.71-2.69 354.5-3.03 355.08-3.61 355.67-4.2 356.01-4.99 356.35-5.79 356.35-6.69L356.35-6.69ZM382.55-6.35L382.55-6.35Q382.55-4.83 381.94-3.58 381.33-2.32 380.28-1.42 379.23-0.51 377.85-0.01 376.47 0.49 374.96 0.49L374.96 0.49 372.95 0.49Q371.44 0.49 370.06-0.09 368.68-0.66 367.64-1.66 366.61-2.66 365.98-4 365.36-5.35 365.36-6.86L365.36-6.86 365.36-7.86 368.36-8.35 368.36-6.69Q368.36-5.79 368.74-4.99 369.12-4.2 369.75-3.61 370.39-3.03 371.22-2.69 372.05-2.34 372.95-2.34L372.95-2.34 374.96-2.34Q375.86-2.34 376.69-2.61 377.52-2.88 378.17-3.38 378.81-3.88 379.19-4.59 379.57-5.3 379.57-6.2L379.57-6.2Q379.57-7.54 378.98-8.4 378.4-9.25 377.43-9.83 376.47-10.4 375.24-10.78 374-11.16 372.71-11.54 371.41-11.91 370.18-12.4 368.95-12.89 367.98-13.68 367.02-14.48 366.43-15.67 365.85-16.87 365.85-18.65L365.85-18.65Q365.85-20.17 366.43-21.42 367.02-22.68 368.02-23.58 369.02-24.49 370.35-24.99 371.68-25.49 373.2-25.49L373.2-25.49 374.96-25.49Q376.47-25.49 377.81-24.91 379.15-24.34 380.16-23.34 381.16-22.34 381.73-21 382.3-19.65 382.3-18.14L382.3-18.14 382.3-18.04 379.3-17.55 379.3-18.31Q379.3-19.21 378.96-20.01 378.62-20.8 378.03-21.39 377.45-21.97 376.65-22.31 375.86-22.66 374.96-22.66L374.96-22.66 373.2-22.66Q372.29-22.66 371.5-22.39 370.71-22.12 370.12-21.62 369.54-21.12 369.19-20.41 368.85-19.7 368.85-18.8L368.85-18.8Q368.85-17.5 369.44-16.69 370.02-15.87 370.99-15.31 371.95-14.75 373.18-14.37 374.42-13.99 375.7-13.59 376.98-13.18 378.21-12.67 379.45-12.16 380.41-11.35 381.38-10.55 381.96-9.34 382.55-8.13 382.55-6.35ZM392.56-3.76L390.06 7.01 388.8 7.01 388.8-3.76 392.56-3.76ZM414.79-31.01L411.3-31.01 411.3-35.01 414.79-35.01 414.79-31.01ZM414.55 0L411.54 0 411.54-25 414.55-25 414.55 0ZM450.95 0L447.94 0 447.94-18.31Q447.94-19.21 447.6-20.01 447.26-20.8 446.67-21.39 446.09-21.97 445.29-22.31 444.5-22.66 443.6-22.66L443.6-22.66 442.11-22.66Q441.2-22.66 440.41-22.31 439.62-21.97 439.02-21.39 438.42-20.8 438.08-20.01 437.74-19.21 437.74-18.31L437.74-18.31 437.74 0 434.76 0 434.76-18.31Q434.76-19.21 434.42-20.01 434.08-20.8 433.48-21.39 432.88-21.97 432.09-22.31 431.29-22.66 430.39-22.66L430.39-22.66 428.9-22.66Q428-22.66 427.2-22.31 426.41-21.97 425.82-21.39 425.24-20.8 424.9-20.01 424.55-19.21 424.55-18.31L424.55-18.31 424.55 0 421.55 0 421.55-25 422.55-25 424.19-22.46Q425.21-23.85 426.76-24.67 428.31-25.49 430.15-25.49L430.15-25.49 430.39-25.49Q432.51-25.49 434.22-24.44 435.93-23.39 436.86-21.66L436.86-21.66Q437.32-22.51 438.01-23.22 438.69-23.93 439.52-24.43 440.35-24.93 441.33-25.21 442.3-25.49 443.35-25.49L443.35-25.49 443.6-25.49Q445.11-25.49 446.45-24.91 447.8-24.34 448.8-23.34 449.8-22.34 450.37-21 450.95-19.65 450.95-18.14L450.95-18.14 450.95 0ZM473.65-6.86L473.65-6.86Q473.65-5.35 473.07-4 472.5-2.66 471.5-1.66 470.5-0.66 469.16-0.09 467.81 0.49 466.3 0.49L466.3 0.49 465.54 0.49Q463.86 0.49 462.42-0.2 460.98-0.88 459.95-2.1L459.95-2.1 459.95 10.01 456.95 10.01 456.95-25 457.95-25 459.59-22.46Q460.61-23.85 462.16-24.67 463.71-25.49 465.54-25.49L465.54-25.49 466.3-25.49Q467.81-25.49 469.16-24.91 470.5-24.34 471.5-23.34 472.5-22.34 473.07-21 473.65-19.65 473.65-18.14L473.65-18.14 473.65-6.86ZM470.65-6.69L470.65-18.31Q470.65-19.21 470.3-20.01 469.96-20.8 469.38-21.39 468.79-21.97 468-22.31 467.2-22.66 466.3-22.66L466.3-22.66 464.3-22.66Q463.39-22.66 462.6-22.31 461.81-21.97 461.22-21.39 460.64-20.8 460.29-20.01 459.95-19.21 459.95-18.31L459.95-18.31 459.95-6.69Q459.95-5.79 460.29-4.99 460.64-4.2 461.22-3.61 461.81-3.03 462.6-2.69 463.39-2.34 464.3-2.34L464.3-2.34 466.3-2.34Q467.2-2.34 468-2.69 468.79-3.03 469.38-3.61 469.96-4.2 470.3-4.99 470.65-5.79 470.65-6.69L470.65-6.69ZM496.35 0L495.35 0 493.69-2.54Q492.66-1.15 491.13-0.33 489.59 0.49 487.76 0.49L487.76 0.49 487 0.49Q485.49 0.49 484.14-0.09 482.8-0.66 481.8-1.66 480.8-2.66 480.23-4 479.65-5.35 479.65-6.86L479.65-6.86 479.65-25 482.65-25 482.65-6.69Q482.65-5.79 483-4.99 483.34-4.2 483.92-3.61 484.51-3.03 485.3-2.69 486.1-2.34 487-2.34L487-2.34 489-2.34Q489.91-2.34 490.7-2.69 491.49-3.03 492.08-3.61 492.66-4.2 493.01-4.99 493.35-5.79 493.35-6.69L493.35-6.69 493.35-25 496.35-25 496.35 0ZM506.36 0L503.36 0 503.36-35.01 506.36-35.01 506.36 0ZM530.55-6.35L530.55-6.35Q530.55-4.83 529.94-3.58 529.33-2.32 528.28-1.42 527.23-0.51 525.85-0.01 524.47 0.49 522.96 0.49L522.96 0.49 520.96 0.49Q519.44 0.49 518.06-0.09 516.68-0.66 515.65-1.66 514.61-2.66 513.99-4 513.36-5.35 513.36-6.86L513.36-6.86 513.36-7.86 516.37-8.35 516.37-6.69Q516.37-5.79 516.74-4.99 517.12-4.2 517.76-3.61 518.39-3.03 519.22-2.69 520.05-2.34 520.96-2.34L520.96-2.34 522.96-2.34Q523.86-2.34 524.69-2.61 525.52-2.88 526.17-3.38 526.81-3.88 527.19-4.59 527.57-5.3 527.57-6.2L527.57-6.2Q527.57-7.54 526.99-8.4 526.4-9.25 525.44-9.83 524.47-10.4 523.24-10.78 522.01-11.16 520.71-11.54 519.42-11.91 518.18-12.4 516.95-12.89 515.99-13.68 515.02-14.48 514.44-15.67 513.85-16.87 513.85-18.65L513.85-18.65Q513.85-20.17 514.44-21.42 515.02-22.68 516.02-23.58 517.02-24.49 518.36-24.99 519.69-25.49 521.2-25.49L521.2-25.49 522.96-25.49Q524.47-25.49 525.81-24.91 527.16-24.34 528.16-23.34 529.16-22.34 529.73-21 530.31-19.65 530.31-18.14L530.31-18.14 530.31-18.04 527.3-17.55 527.3-18.31Q527.3-19.21 526.96-20.01 526.62-20.8 526.03-21.39 525.45-21.97 524.65-22.31 523.86-22.66 522.96-22.66L522.96-22.66 521.2-22.66Q520.3-22.66 519.5-22.39 518.71-22.12 518.12-21.62 517.54-21.12 517.2-20.41 516.85-19.7 516.85-18.8L516.85-18.8Q516.85-17.5 517.44-16.69 518.03-15.87 518.99-15.31 519.95-14.75 521.19-14.37 522.42-13.99 523.7-13.59 524.98-13.18 526.22-12.67 527.45-12.16 528.41-11.35 529.38-10.55 529.96-9.34 530.55-8.13 530.55-6.35ZM540.56-31.01L537.07-31.01 537.07-35.01 540.56-35.01 540.56-31.01ZM540.31 0L537.31 0 537.31-25 540.31-25 540.31 0ZM564.02-6.86L564.02-6.86Q564.02-5.35 563.44-4 562.87-2.66 561.87-1.66 560.87-0.66 559.52-0.09 558.18 0.49 556.67 0.49L556.67 0.49 554.67 0.49Q553.15 0.49 551.81-0.09 550.47-0.66 549.47-1.66 548.47-2.66 547.89-4 547.32-5.35 547.32-6.86L547.32-6.86 547.32-18.14Q547.32-19.65 547.89-21 548.47-22.34 549.47-23.34 550.47-24.34 551.81-24.91 553.15-25.49 554.67-25.49L554.67-25.49 556.67-25.49Q558.18-25.49 559.52-24.91 560.87-24.34 561.87-23.34 562.87-22.34 563.44-21 564.02-19.65 564.02-18.14L564.02-18.14 564.02-6.86ZM561.01-6.69L561.01-18.31Q561.01-19.21 560.67-20.01 560.33-20.8 559.74-21.39 559.16-21.97 558.37-22.31 557.57-22.66 556.67-22.66L556.67-22.66 554.67-22.66Q553.76-22.66 552.97-22.31 552.18-21.97 551.59-21.39 551-20.8 550.66-20.01 550.32-19.21 550.32-18.31L550.32-18.31 550.32-6.69Q550.32-5.79 550.66-4.99 551-4.2 551.59-3.61 552.18-3.03 552.97-2.69 553.76-2.34 554.67-2.34L554.67-2.34 556.67-2.34Q557.57-2.34 558.37-2.69 559.16-3.03 559.74-3.61 560.33-4.2 560.67-4.99 561.01-5.79 561.01-6.69L561.01-6.69ZM586.72 0L583.72 0 583.72-18.31Q583.72-19.21 583.37-20.01 583.03-20.8 582.45-21.39 581.86-21.97 581.07-22.31 580.27-22.66 579.37-22.66L579.37-22.66 577.37-22.66Q576.47-22.66 575.67-22.31 574.88-21.97 574.29-21.39 573.71-20.8 573.36-20.01 573.02-19.21 573.02-18.31L573.02-18.31 573.02 0 570.02 0 570.02-25 571.02-25 572.66-22.46Q573.68-23.85 575.23-24.67 576.78-25.49 578.61-25.49L578.61-25.49 579.37-25.49Q580.88-25.49 582.23-24.91 583.57-24.34 584.57-23.34 585.57-22.34 586.15-21 586.72-19.65 586.72-18.14L586.72-18.14 586.72 0ZM609.42-6.86L609.42-6.86Q609.42-5.35 608.85-4 608.27-2.66 607.27-1.66 606.27-0.66 604.93-0.09 603.59 0.49 602.07 0.49L602.07 0.49 600.07 0.49Q598.56 0.49 597.22-0.09 595.87-0.66 594.87-1.66 593.87-2.66 593.3-4 592.72-5.35 592.72-6.86L592.72-6.86 592.72-18.14Q592.72-19.65 593.3-21 593.87-22.34 594.87-23.34 595.87-24.34 597.22-24.91 598.56-25.49 600.07-25.49L600.07-25.49 602.07-25.49Q603.59-25.49 604.93-24.91 606.27-24.34 607.27-23.34 608.27-22.34 608.85-21 609.42-19.65 609.42-18.14L609.42-18.14 609.42-12.26 595.73-12.26 595.73-6.69Q595.73-5.79 596.07-4.99 596.41-4.2 597-3.61 597.58-3.03 598.37-2.69 599.17-2.34 600.07-2.34L600.07-2.34 602.07-2.34Q602.98-2.34 603.77-2.69 604.56-3.03 605.15-3.61 605.74-4.2 606.08-4.99 606.42-5.79 606.42-6.69L606.42-6.69 606.42-8.35 609.42-7.86 609.42-6.86ZM606.42-14.6L606.42-18.31Q606.42-19.21 606.08-20.01 605.74-20.8 605.15-21.39 604.56-21.97 603.77-22.31 602.98-22.66 602.07-22.66L602.07-22.66 600.07-22.66Q599.17-22.66 598.37-22.31 597.58-21.97 597-21.39 596.41-20.8 596.07-20.01 595.73-19.21 595.73-18.31L595.73-18.31 595.73-14.6 606.42-14.6ZM637.27-22.14L634.27-22.14Q633.37-22.14 632.57-21.8 631.78-21.46 631.19-20.87 630.61-20.29 630.27-19.49 629.92-18.7 629.92-17.8L629.92-17.8 629.92 0 626.92 0 626.92-25 627.92-25 629.56-22.46Q630.58-23.85 632.13-24.67 633.68-25.49 635.52-25.49L635.52-25.49 637.27-25.49 637.27-22.14ZM657.97-6.86L657.97-6.86Q657.97-5.35 657.4-4 656.83-2.66 655.83-1.66 654.82-0.66 653.48-0.09 652.14 0.49 650.63 0.49L650.63 0.49 648.62 0.49Q647.11 0.49 645.77-0.09 644.42-0.66 643.42-1.66 642.42-2.66 641.85-4 641.27-5.35 641.27-6.86L641.27-6.86 641.27-18.14Q641.27-19.65 641.85-21 642.42-22.34 643.42-23.34 644.42-24.34 645.77-24.91 647.11-25.49 648.62-25.49L648.62-25.49 650.63-25.49Q652.14-25.49 653.48-24.91 654.82-24.34 655.83-23.34 656.83-22.34 657.4-21 657.97-19.65 657.97-18.14L657.97-18.14 657.97-12.26 644.28-12.26 644.28-6.69Q644.28-5.79 644.62-4.99 644.96-4.2 645.55-3.61 646.13-3.03 646.93-2.69 647.72-2.34 648.62-2.34L648.62-2.34 650.63-2.34Q651.53-2.34 652.32-2.69 653.12-3.03 653.7-3.61 654.29-4.2 654.63-4.99 654.97-5.79 654.97-6.69L654.97-6.69 654.97-8.35 657.97-7.86 657.97-6.86ZM654.97-14.6L654.97-18.31Q654.97-19.21 654.63-20.01 654.29-20.8 653.7-21.39 653.12-21.97 652.32-22.31 651.53-22.66 650.63-22.66L650.63-22.66 648.62-22.66Q647.72-22.66 646.93-22.31 646.13-21.97 645.55-21.39 644.96-20.8 644.62-20.01 644.28-19.21 644.28-18.31L644.28-18.31 644.28-14.6 654.97-14.6ZM681.16-6.35L681.16-6.35Q681.16-4.83 680.55-3.58 679.94-2.32 678.89-1.42 677.84-0.51 676.47-0.01 675.09 0.49 673.57 0.49L673.57 0.49 671.57 0.49Q670.06 0.49 668.68-0.09 667.3-0.66 666.26-1.66 665.22-2.66 664.6-4 663.98-5.35 663.98-6.86L663.98-6.86 663.98-7.86 666.98-8.35 666.98-6.69Q666.98-5.79 667.36-4.99 667.74-4.2 668.37-3.61 669.01-3.03 669.84-2.69 670.67-2.34 671.57-2.34L671.57-2.34 673.57-2.34Q674.48-2.34 675.31-2.61 676.14-2.88 676.78-3.38 677.43-3.88 677.81-4.59 678.19-5.3 678.19-6.2L678.19-6.2Q678.19-7.54 677.6-8.4 677.01-9.25 676.05-9.83 675.09-10.4 673.85-10.78 672.62-11.16 671.33-11.54 670.03-11.91 668.8-12.4 667.57-12.89 666.6-13.68 665.64-14.48 665.05-15.67 664.47-16.87 664.47-18.65L664.47-18.65Q664.47-20.17 665.05-21.42 665.64-22.68 666.64-23.58 667.64-24.49 668.97-24.99 670.3-25.49 671.81-25.49L671.81-25.49 673.57-25.49Q675.09-25.49 676.43-24.91 677.77-24.34 678.77-23.34 679.77-22.34 680.35-21 680.92-19.65 680.92-18.14L680.92-18.14 680.92-18.04 677.92-17.55 677.92-18.31Q677.92-19.21 677.58-20.01 677.23-20.8 676.65-21.39 676.06-21.97 675.27-22.31 674.48-22.66 673.57-22.66L673.57-22.66 671.81-22.66Q670.91-22.66 670.12-22.39 669.32-22.12 668.74-21.62 668.15-21.12 667.81-20.41 667.47-19.7 667.47-18.8L667.47-18.8Q667.47-17.5 668.05-16.69 668.64-15.87 669.6-15.31 670.57-14.75 671.8-14.37 673.04-13.99 674.32-13.59 675.6-13.18 676.83-12.67 678.06-12.16 679.03-11.35 679.99-10.55 680.58-9.34 681.16-8.13 681.16-6.35ZM703.62 0L702.62 0 700.96-2.54Q699.94-1.15 698.4-0.33 696.86 0.49 695.03 0.49L695.03 0.49 694.27 0.49Q692.76 0.49 691.42-0.09 690.07-0.66 689.07-1.66 688.07-2.66 687.5-4 686.92-5.35 686.92-6.86L686.92-6.86 686.92-25 689.93-25 689.93-6.69Q689.93-5.79 690.27-4.99 690.61-4.2 691.2-3.61 691.78-3.03 692.58-2.69 693.37-2.34 694.27-2.34L694.27-2.34 696.27-2.34Q697.18-2.34 697.97-2.69 698.77-3.03 699.35-3.61 699.94-4.2 700.28-4.99 700.62-5.79 700.62-6.69L700.62-6.69 700.62-25 703.62-25 703.62 0ZM713.63 0L710.63 0 710.63-35.01 713.63-35.01 713.63 0ZM732.48 0L729.74 0Q728.37 0 727.17-0.51 725.96-1.03 725.07-1.93 724.18-2.83 723.65-4.03 723.13-5.22 723.13-6.59L723.13-6.59 723.13-22.14 718.63-22.14 718.63-25 723.13-25 723.13-31.01 726.13-31.49 726.13-25 732.48-25 732.48-22.14 726.13-22.14 726.13-6.45Q726.13-5.69 726.41-5.04 726.69-4.39 727.18-3.91 727.67-3.42 728.33-3.14 728.98-2.86 729.74-2.86L729.74-2.86 732.48-2.86 732.48 0ZM754.69 0L753.69 0 752.03-2.49Q751-1.15 749.47-0.33 747.93 0.49 746.1 0.49L746.1 0.49 745.34 0.49Q743.83 0.49 742.48-0.09 741.14-0.66 740.14-1.66 739.14-2.66 738.56-4 737.99-5.35 737.99-6.86L737.99-6.86 737.99-7.1Q737.99-8.62 738.56-9.96 739.14-11.3 740.14-12.3 741.14-13.31 742.48-13.88 743.83-14.45 745.34-14.45L745.34-14.45 751.69-14.45 751.69-18.31Q751.69-19.21 751.35-20.01 751-20.8 750.42-21.39 749.83-21.97 749.04-22.31 748.24-22.66 747.34-22.66L747.34-22.66 745.58-22.66Q744.68-22.66 743.89-22.31 743.09-21.97 742.51-21.39 741.92-20.8 741.58-20.01 741.24-19.21 741.24-18.31L741.24-18.31 741.24-17.41 738.24-17.9 738.24-18.14Q738.24-19.65 738.81-21 739.38-22.34 740.38-23.34 741.38-24.34 742.73-24.91 744.07-25.49 745.58-25.49L745.58-25.49 747.34-25.49Q748.86-25.49 750.2-24.91 751.54-24.34 752.54-23.34 753.54-22.34 754.12-21 754.69-19.65 754.69-18.14L754.69-18.14 754.69 0ZM751.69-6.69L751.69-12.11 745.34-12.11Q744.44-12.11 743.64-11.77 742.85-11.43 742.26-10.83 741.68-10.23 741.34-9.44 740.99-8.64 740.99-7.74L740.99-7.74 740.99-6.69Q740.99-5.79 741.34-4.99 741.68-4.2 742.26-3.61 742.85-3.03 743.64-2.69 744.44-2.34 745.34-2.34L745.34-2.34 747.34-2.34Q748.24-2.34 749.04-2.69 749.83-3.03 750.42-3.61 751-4.2 751.35-4.99 751.69-5.79 751.69-6.69L751.69-6.69ZM777.39 0L776.39 0 774.73-2.54Q773.71-1.15 772.17-0.33 770.63 0.49 768.8 0.49L768.8 0.49 768.04 0.49Q766.53 0.49 765.19-0.09 763.84-0.66 762.84-1.66 761.84-2.66 761.27-4 760.69-5.35 760.69-6.86L760.69-6.86 760.69-18.14Q760.69-19.65 761.27-21 761.84-22.34 762.84-23.34 763.84-24.34 765.19-24.91 766.53-25.49 768.04-25.49L768.04-25.49 768.8-25.49Q770.48-25.49 771.92-24.8 773.36-24.12 774.39-22.9L774.39-22.9 774.39-35.01 777.39-35.01 777.39 0ZM774.39-6.69L774.39-18.31Q774.39-19.21 774.05-20.01 773.71-20.8 773.12-21.39 772.53-21.97 771.74-22.31 770.95-22.66 770.04-22.66L770.04-22.66 768.04-22.66Q767.14-22.66 766.35-22.31 765.55-21.97 764.97-21.39 764.38-20.8 764.04-20.01 763.7-19.21 763.7-18.31L763.7-18.31 763.7-6.69Q763.7-5.79 764.04-4.99 764.38-4.2 764.97-3.61 765.55-3.03 766.35-2.69 767.14-2.34 768.04-2.34L768.04-2.34 770.04-2.34Q770.95-2.34 771.74-2.69 772.53-3.03 773.12-3.61 773.71-4.2 774.05-4.99 774.39-5.79 774.39-6.69L774.39-6.69ZM800.1-6.86L800.1-6.86Q800.1-5.35 799.52-4 798.95-2.66 797.95-1.66 796.95-0.66 795.6-0.09 794.26 0.49 792.75 0.49L792.75 0.49 790.74 0.49Q789.23 0.49 787.89-0.09 786.55-0.66 785.54-1.66 784.54-2.66 783.97-4 783.4-5.35 783.4-6.86L783.4-6.86 783.4-18.14Q783.4-19.65 783.97-21 784.54-22.34 785.54-23.34 786.55-24.34 787.89-24.91 789.23-25.49 790.74-25.49L790.74-25.49 792.75-25.49Q794.26-25.49 795.6-24.91 796.95-24.34 797.95-23.34 798.95-22.34 799.52-21 800.1-19.65 800.1-18.14L800.1-18.14 800.1-6.86ZM797.09-6.69L797.09-18.31Q797.09-19.21 796.75-20.01 796.41-20.8 795.82-21.39 795.24-21.97 794.44-22.31 793.65-22.66 792.75-22.66L792.75-22.66 790.74-22.66Q789.84-22.66 789.05-22.31 788.25-21.97 787.67-21.39 787.08-20.8 786.74-20.01 786.4-19.21 786.4-18.31L786.4-18.31 786.4-6.69Q786.4-5.79 786.74-4.99 787.08-4.2 787.67-3.61 788.25-3.03 789.05-2.69 789.84-2.34 790.74-2.34L790.74-2.34 792.75-2.34Q793.65-2.34 794.44-2.69 795.24-3.03 795.82-3.61 796.41-4.2 796.75-4.99 797.09-5.79 797.09-6.69L797.09-6.69ZM823.29-6.35L823.29-6.35Q823.29-4.83 822.68-3.58 822.07-2.32 821.02-1.42 819.97-0.51 818.59-0.01 817.21 0.49 815.69 0.49L815.69 0.49 813.69 0.49Q812.18 0.49 810.8-0.09 809.42-0.66 808.38-1.66 807.34-2.66 806.72-4 806.1-5.35 806.1-6.86L806.1-6.86 806.1-7.86 809.1-8.35 809.1-6.69Q809.1-5.79 809.48-4.99 809.86-4.2 810.49-3.61 811.13-3.03 811.96-2.69 812.79-2.34 813.69-2.34L813.69-2.34 815.69-2.34Q816.6-2.34 817.43-2.61 818.26-2.88 818.9-3.38 819.55-3.88 819.93-4.59 820.31-5.3 820.31-6.2L820.31-6.2Q820.31-7.54 819.72-8.4 819.14-9.25 818.17-9.83 817.21-10.4 815.97-10.78 814.74-11.16 813.45-11.54 812.15-11.91 810.92-12.4 809.69-12.89 808.72-13.68 807.76-14.48 807.17-15.67 806.59-16.87 806.59-18.65L806.59-18.65Q806.59-20.17 807.17-21.42 807.76-22.68 808.76-23.58 809.76-24.49 811.09-24.99 812.42-25.49 813.94-25.49L813.94-25.49 815.69-25.49Q817.21-25.49 818.55-24.91 819.89-24.34 820.89-23.34 821.89-22.34 822.47-21 823.04-19.65 823.04-18.14L823.04-18.14 823.04-18.04 820.04-17.55 820.04-18.31Q820.04-19.21 819.7-20.01 819.36-20.8 818.77-21.39 818.18-21.97 817.39-22.31 816.6-22.66 815.69-22.66L815.69-22.66 813.94-22.66Q813.03-22.66 812.24-22.39 811.45-22.12 810.86-21.62 810.27-21.12 809.93-20.41 809.59-19.7 809.59-18.8L809.59-18.8Q809.59-17.5 810.18-16.69 810.76-15.87 811.73-15.31 812.69-14.75 813.92-14.37 815.16-13.99 816.44-13.59 817.72-13.18 818.95-12.67 820.19-12.16 821.15-11.35 822.11-10.55 822.7-9.34 823.29-8.13 823.29-6.35Z" opacity="1" transform="matrix(1,0,0,1,0,0)" fill="#000000" class="slogan-text-1" data-fill-palette-color="secondary" id="text-1"></path></svg></g></svg></g></svg></g></svg></g><g><svg viewBox="0 0 145.37256984025572 145.37256984025572" height="145.37256984025572" width="145.37256984025572"><g><svg></svg></g><g id="icon-0"><svg viewBox="0 0 145.37256984025572 145.37256984025572" height="145.37256984025572" width="145.37256984025572"><g><path d="M0 72.686c0-40.144 32.543-72.686 72.686-72.686 40.144 0 72.686 32.543 72.687 72.686 0 40.144-32.543 72.686-72.687 72.687-40.144 0-72.686-32.543-72.686-72.687zM72.686 138.202c36.183 0 65.516-29.332 65.516-65.516 0-36.183-29.332-65.516-65.516-65.515-36.183 0-65.516 29.332-65.515 65.515 0 36.183 29.332 65.516 65.515 65.516z" data-fill-palette-color="tertiary" fill="#261f20" stroke="transparent"></path></g><g transform="matrix(1,0,0,1,32.818960529401544,38.536833477261084)"><svg viewBox="0 0 79.73464878145263 68.29890288573355" height="68.29890288573355" width="79.73464878145263"><g><svg xmlns="http://www.w3.org/2000/svg" xmlns:xlink="http://www.w3.org/1999/xlink" version="1.1" x="0" y="0" viewBox="2.735 4.638 26.53 22.725" enable-background="new 0 0 32 32" xml:space="preserve" height="68.29890288573355" width="79.73464878145263" class="icon-dxe-0" data-fill-palette-color="accent" id="dxe-0"><path d="M21.709 13.36L29.265 9 21.709 4.638V7.339C18.78 7.713 16.804 9.979 14.9 12.29 15.445 12.993 15.98 13.709 16.504 14.418 16.696 14.678 16.887 14.932 17.077 15.188 17.879 14.145 18.661 13.189 19.418 12.448 20.302 11.563 21.091 11.055 21.709 10.86zM17.584 17.493C15.691 15.122 13.77 12.139 11.575 9.956 10.114 8.528 8.42 7.293 6.235 7.264H2.735V10.764H6.235C7.206 10.645 9.08 12.097 10.947 14.535 12.842 16.906 14.761 19.889 16.958 22.072 18.284 23.369 19.805 24.498 21.709 24.717V27.363L29.265 23 21.709 18.639V21.174C20.669 20.833 19.128 19.509 17.584 17.493" fill="#261f20" data-fill-palette-color="accent"></path></svg></g></svg></g></svg></g></svg></g></svg></g></svg></g><defs></defs></svg><rect width="395.52" height="99.40236641529046" fill="none" stroke="none" visibility="hidden"></rect></g></svg></g></svg>